<svg width="60" height="61" viewBox="0 0 60 61" fill="none" xmlns="http://www.w3.org/2000/svg">
<g clip-path="url(#clip0)">
<path d="M0.166687 0.695679H5.83335C11.8334 0.704012 19.3867 4.27568 23.6667 8.36901C25.2117 9.84568 26.6534 11.444 27.88 13.1957L30.1667 16.6957C31.405 14.6723 32.6534 12.6573 34.215 10.8623C38.0717 6.42901 42.7167 3.42735 48.3334 1.74235C50.1434 1.19901 52.4434 0.697345 54.3334 0.695679H60V60.529C58.6467 60.7707 56.735 60.7123 55.3334 60.6957C54.915 60.6907 54.2917 60.704 53.975 60.3873C53.6133 60.024 53.6667 59.179 53.6667 58.6957V26.1957L53.8034 24.3623L53.68 23.029L53.8334 21.1957V18.1957L53.6667 15.3623L53.8334 13.1957V10.029C53.8317 9.48735 53.8384 7.83068 53.4334 7.50901C53.0034 7.13235 52.305 7.39901 51.8334 7.50901C50.47 7.89735 49.1417 8.28568 47.8334 8.83068C43.4317 10.6673 38.33 15.0807 36.1867 19.3623C35.2834 21.1657 34.4867 23.059 34.0567 25.029C33.71 26.6157 33.7434 27.0057 32.5 27.029H28.1667C27.735 27.029 27.1417 27.0923 26.8134 26.7673C26.4184 26.3773 26.3884 25.534 26.2567 25.0007C25.9584 23.8073 25.595 22.6507 25.09 21.529C22.5884 15.9607 18.8567 11.9123 13.3334 9.23901C12.1734 8.67735 9.74669 7.80735 8.50002 7.57068C8.02502 7.42735 7.14502 7.19901 6.77335 7.57068C6.49502 7.91568 6.50002 9.71068 6.50002 10.1957V52.029C6.50002 52.5207 6.42835 53.3873 6.90502 53.6857C7.29169 53.9273 8.22835 53.6273 8.66669 53.5273C10.4434 53.124 12.2034 52.484 13.8334 51.6673C18.2184 49.469 22.3334 45.4757 24.4467 41.029C25.08 39.6957 25.8567 37.789 26.2 36.3623C26.3134 35.8873 26.5517 34.464 26.9267 34.2057C27.1567 34.0473 28.3284 34.044 28.6667 34.0357L30.5 34.179L31.88 34.0823C32.215 34.084 32.6567 34.1573 32.87 34.4473C33.1767 34.8673 32.655 36.649 32.5517 37.1957C32.0767 39.6857 31.1567 41.8573 30.0684 44.1257L29.6067 45.1957C28.775 46.7457 27.4817 48.5157 26.3467 49.864C21.7634 55.3057 16.2617 58.499 9.33335 59.9723C7.06169 60.4557 5.80002 60.529 3.50002 60.529C2.66669 60.529 1.70502 60.699 1.00002 60.1957L0.166687 60.529V54.029V40.6957V0.695679ZM1.00002 59.8623H0.833354L1.00002 60.029V59.8623ZM4.16669 59.8623H4.00002L4.16669 60.029V59.8623ZM0.833354 60.1957H0.666687L0.833354 60.3623V60.1957ZM4.66669 60.1957H4.50002L4.66669 60.3623V60.1957Z" fill="#C6AD4D"/>
</g>
<defs>
<clipPath id="clip0">
<rect width="60" height="60" fill="white" transform="translate(0 0.695679)"/>
</clipPath>
</defs>
</svg>
